<svg id="レイヤー_1" data-name="レイヤー 1" xmlns="http://www.w3.org/2000/svg" viewBox="0 0 226 47"><path d="M43.43,27.84,39.6,46.24H35.76L44.18,6.45H56.93c7.34,0,10.95,3.82,10.95,9.38,0,6.06-3.58,9.51-8.93,10.63,2.53.88,5.74,3.38,4.32,10.14-1,4.48-1.74,8-1.6,9.64H58.09c-.18-1.71.3-4.79,1.42-9.41,1.28-6.14-.67-9-7.29-9Zm.75-3.31h8.29c7.13,0,11.45-2.39,11.45-8.28,0-4.46-2.83-6.49-7.61-6.49h-9Z"/><path d="M73.71,6.45H97.47l-.73,3.34H76.84L73.77,24.3H92.42l-.73,3.34H73l-3.88,18.6H65.29Z"/><path d="M127.85,22.28c0,11.39-6.4,24.53-20.78,24.53-9.5,0-14.8-6.57-14.8-16,0-11.69,6.89-24.9,20.67-24.9C122.47,5.88,127.85,12,127.85,22.28Zm-31.59,8.4c0,7,3.47,12.81,11.33,12.81,10.89,0,16.29-11.11,16.29-21.32,0-7.76-3.82-13-11.21-13C101.45,9.19,96.26,21.05,96.26,30.68Z"/><path d="M163.82,22.28c0,11.39-6.4,24.53-20.78,24.53-9.5,0-14.81-6.57-14.81-16,0-11.69,6.9-24.9,20.68-24.9C158.44,5.88,163.82,12,163.82,22.28Zm-31.6,8.4c0,7,3.48,12.81,11.34,12.81,10.88,0,16.29-11.11,16.29-21.32,0-7.76-3.83-13-11.21-13C137.42,9.19,132.22,21.05,132.22,30.68Z"/><path d="M171.12,6.45H175L167.22,42.9h20.22l-1.16,3.34H162.7Z"/><path d="M40.08,19.06C40.08,31.69,33,46.69,17,46.69c-10.46,0-16.47-7.3-16.47-18,0-13.12,7.69-28,23.06-28C34,.63,40.08,7.32,40.08,19.06ZM4,28.58c0,8.16,4.08,15.08,13.41,15.08,12.68,0,19.15-12.82,19.15-24.73,0-9.15-4.63-15.26-13.28-15.26C10.05,3.67,4,17.49,4,28.58Z"/><rect x="40.4" y="9.79" width="10" height="14.71" style="fill:#fff"/><rect x="69.7" y="9.8" width="10.01" height="14.49" style="fill:#fff"/></svg>